<svg width="18" height="18" viewBox="0 0 18 18" fill="none" xmlns="http://www.w3.org/2000/svg">
<path d="M13.845 11.7338C12.405 12.4632 11.0115 13.1926 9 13.1926C6.9885 13.1926 5.595 12.4632 4.155 11.7338M6.59625 12.815C6.25626 13.311 5.89207 13.7899 5.505 14.2501C2.7375 14.1713 1.6875 12.3751 1.6875 12.3751C1.72684 9.83 2.34359 7.32707 3.49125 5.05509C4.50007 4.26588 5.7293 3.80983 7.00875 3.75009L7.38375 4.61634C7.91935 4.54198 8.45928 4.50315 9 4.50009C9.54313 4.50188 10.0856 4.53946 10.6237 4.61259L10.9987 3.74634C12.2795 3.80932 13.5088 4.26934 14.5162 5.06259C15.6602 7.33292 16.2744 9.83313 16.3125 12.3751C16.3125 12.3751 15.2625 14.1713 12.495 14.2501C12.1138 13.7921 11.7558 13.3153 11.4225 12.8213L6.59625 12.815Z" stroke="white" stroke-linecap="round" stroke-linejoin="round"/>
<path d="M6.69265 11.0926C7.38646 11.0926 7.9489 10.5301 7.9489 9.83633C7.9489 9.14252 7.38646 8.58008 6.69265 8.58008C5.99884 8.58008 5.4364 9.14252 5.4364 9.83633C5.4364 10.5301 5.99884 11.0926 6.69265 11.0926Z" stroke="white" stroke-linecap="round" stroke-linejoin="round"/>
<path d="M11.3074 11.0926C12.0012 11.0926 12.5636 10.5301 12.5636 9.83633C12.5636 9.14252 12.0012 8.58008 11.3074 8.58008C10.6136 8.58008 10.0511 9.14252 10.0511 9.83633C10.0511 10.5301 10.6136 11.0926 11.3074 11.0926Z" stroke="white" stroke-linecap="round" stroke-linejoin="round"/>
</svg>
