<svg width="18" height="18" viewBox="0 0 18 18" fill="none" xmlns="http://www.w3.org/2000/svg">
<path d="M15.3727 3.13037H2.62736C2.34567 3.13037 2.07552 3.25405 1.87633 3.4742C1.67715 3.69435 1.56525 3.99294 1.56525 4.30428V13.6956C1.56525 14.0069 1.67715 14.3055 1.87633 14.5257C2.07552 14.7458 2.34567 14.8695 2.62736 14.8695H15.3727C15.6544 14.8695 15.9245 14.7458 16.1237 14.5257C16.3229 14.3055 16.4348 14.0069 16.4348 13.6956V4.30428C16.4348 3.99294 16.3229 3.69435 16.1237 3.4742C15.9245 3.25405 15.6544 3.13037 15.3727 3.13037ZM14.2044 4.30428L9.00003 8.28385L3.79568 4.30428H14.2044ZM2.62736 13.6956V4.83841L8.69733 9.48124C8.78622 9.5494 8.89184 9.58593 9.00003 9.58593C9.10822 9.58593 9.21383 9.5494 9.30273 9.48124L15.3727 4.83841V13.6956H2.62736Z" fill="white"/>
</svg>
