<svg width="165" height="56" viewBox="0 0 165 56" fill="none" xmlns="http://www.w3.org/2000/svg">
<g clip-path="url(#clip0_7_55)">
<path d="M85.1863 18.5485L93.0364 18.0848C93.2155 19.2577 93.5438 20.1305 94.0811 20.7579C94.9466 21.7399 96.1406 22.2309 97.7225 22.2309C98.8866 22.2309 99.8119 21.9854 100.439 21.4671C101.036 21.058 101.394 20.4033 101.394 19.7214C101.394 19.0667 101.065 18.4394 100.498 18.0302C99.9014 17.5392 98.4986 17.0482 96.2898 16.6118C92.6782 15.8753 90.0814 14.8933 88.5592 13.6386C87.0369 12.4657 86.1713 10.7472 86.231 8.91963C86.231 7.66488 86.6489 6.41013 87.4249 5.3736C88.3204 4.20068 89.5441 3.27326 91.0067 2.75499C92.5886 2.12762 94.7974 1.80029 97.5733 1.80029C100.976 1.80029 103.573 2.37311 105.364 3.54603C107.154 4.69167 108.229 6.54652 108.557 9.08329L100.797 9.49245C100.588 8.40136 100.17 7.61033 99.4835 7.09206C98.797 6.57379 97.9016 6.3283 96.7375 6.3283C95.7824 6.3283 95.066 6.51924 94.5885 6.87384C94.1407 7.20117 93.8423 7.69216 93.8721 8.2377C93.8721 8.64686 94.1109 9.02874 94.4691 9.27423C94.8571 9.60156 95.7824 9.90161 97.2449 10.1744C100.857 10.8836 103.423 11.5928 105.005 12.3293C106.587 13.0658 107.722 13.9659 108.408 15.0297C109.124 16.1208 109.483 17.3755 109.453 18.6576C109.453 20.1851 108.975 21.7126 108.02 22.9946C107.035 24.3312 105.662 25.3678 104.05 25.9951C102.349 26.6771 100.2 27.0317 97.633 27.0317C93.0961 27.0317 89.962 26.2406 88.201 24.6313C86.4399 23.0219 85.3953 21.0034 85.1863 18.5485ZM1.88043 26.6225V2.23673H15.6404C18.1775 2.23673 20.1474 2.42767 21.4906 2.83682C22.8039 3.2187 23.968 4.00974 24.744 5.07355C25.6096 6.24647 26.0275 7.61033 25.9976 9.02874C26.0872 11.4291 24.744 13.7204 22.4457 14.9206C21.5503 15.3843 20.5653 15.7116 19.5505 15.8753C20.2967 16.0662 21.0429 16.3936 21.6995 16.7754C22.2069 17.1573 22.6248 17.5938 23.0128 18.0575C23.4606 18.5212 23.8486 19.0395 24.1769 19.585L28.1766 26.6498H18.8043L14.3868 19.1486C13.8196 18.1939 13.3421 17.5665 12.8944 17.2664C12.2974 16.8846 11.581 16.6936 10.8647 16.6936H10.1483V26.5952H1.88043V26.6225ZM10.1483 12.1111H13.6406C14.3868 12.0565 15.1031 11.9474 15.8195 11.7837C16.3567 11.7019 16.8343 11.4291 17.1626 11.02C17.9685 10.038 17.8491 8.64686 16.8641 7.80127C16.3269 7.39211 15.2822 7.17389 13.7898 7.17389H10.1483V12.1111ZM0 47.5168L7.85004 47.0531C8.02912 48.226 8.35745 49.0989 8.89472 49.7262C9.73046 50.7082 10.9542 51.2265 12.5362 51.2265C13.7003 51.2265 14.6255 50.981 15.2524 50.4627C15.8493 50.0263 16.2075 49.3989 16.2075 48.717C16.2075 48.0623 15.8792 47.435 15.312 47.0258C14.7151 46.5348 13.3122 46.0438 11.0736 45.6074C7.46201 44.8709 4.86523 43.8889 3.34298 42.6342C1.82073 41.4613 0.955138 39.7428 1.01483 37.9152C1.01483 36.6605 1.43271 35.4057 2.20876 34.3692C3.1042 33.1963 4.32797 32.2689 5.79052 31.7506C7.37247 31.1232 9.58122 30.7959 12.3571 30.7959C15.7598 30.7959 18.3565 31.3687 20.1474 32.5416C21.9383 33.7146 22.983 35.5421 23.3113 38.0789L15.5508 38.4881C15.3419 37.397 14.924 36.6059 14.2375 36.0877C13.5809 35.5694 12.6556 35.3239 11.4915 35.3512C10.5364 35.3512 9.82001 35.5421 9.34244 35.924C8.86487 36.2513 8.59624 36.7423 8.62609 37.2879C8.62609 37.697 8.86487 38.0789 9.22305 38.3244C9.61107 38.6517 10.5364 38.9518 11.9989 39.2245C15.6105 39.9337 18.1775 40.643 19.7594 41.3794C21.3414 42.1159 22.4756 43.0161 23.1621 44.0799C23.8784 45.171 24.2366 46.4257 24.2366 47.6805C24.2366 49.208 23.7292 50.7082 22.8039 51.9903C21.8189 53.3268 20.4459 54.3634 18.8341 54.9907C17.1328 55.6727 14.9837 56.0273 12.4168 56.0273C7.87988 56.0273 4.74584 55.2362 2.9848 53.6269C1.22377 51.9903 0.238784 49.9717 0 47.5168H0Z" fill="#1A2715"/>
<path d="M39.6979 45.6074L46.9211 47.5986C46.5331 49.2625 45.7272 50.8446 44.6228 52.2357C43.608 53.4632 42.2648 54.4179 40.7426 55.0453C39.1905 55.6727 37.2205 56 34.8327 56C31.9374 56 29.5496 55.6181 27.7288 54.8543C25.8783 54.0906 24.2963 52.7267 22.9532 50.7901C21.61 48.8534 20.9533 46.3712 20.9533 43.3434C20.9533 39.3064 22.1174 36.1968 24.4754 34.0419C26.8334 31.887 30.1465 30.7959 34.4447 30.7959C37.8175 30.7959 40.4441 31.4233 42.3842 32.6507C44.2945 33.9055 45.7272 35.8149 46.6824 38.3789L39.3994 39.8519C39.2203 39.2791 38.9517 38.7063 38.5935 38.2153C38.1458 37.6425 37.5787 37.206 36.8922 36.8787C36.2057 36.5514 35.4296 36.415 34.6536 36.415C32.7732 36.415 31.3405 37.0969 30.3555 38.4881C29.6093 39.4973 29.2212 41.1067 29.2212 43.2888C29.2212 45.9893 29.669 47.8441 30.5644 48.8534C31.4599 49.8626 32.7135 50.3536 34.3551 50.3536C35.9371 50.3536 37.131 49.9445 37.9369 49.1534C38.7428 48.3078 39.3397 47.1349 39.6979 45.6074ZM56.5621 31.2051H64.8001V39.7428H73.8142V31.2051H82.112V55.5908H73.8142V45.7165H64.8001V55.5908H56.5621V31.2051V31.2051Z" fill="#1A2715"/>
<path d="M80.9778 43.398C80.9778 39.4155 82.2015 36.3059 84.6192 34.0965C87.0369 31.887 90.4396 30.7687 94.7676 30.7687C99.2149 30.7687 102.618 31.8598 105.035 34.0419C107.453 36.2241 108.647 39.2791 108.647 43.2071C108.647 46.0712 108.11 48.3897 107.065 50.2173C106.05 52.0176 104.468 53.4905 102.528 54.4725C100.528 55.4818 98.0508 56 95.0959 56C92.0812 56 89.6038 55.5636 87.6339 54.6907C85.6042 53.7633 83.9327 52.3176 82.8283 50.5446C81.6046 48.6352 80.9778 46.2621 80.9778 43.398ZM89.2158 43.4253C89.2158 45.8802 89.7232 47.6532 90.7082 48.7443C91.6932 49.8081 93.0662 50.3537 94.7974 50.3537C96.5584 50.3537 97.9314 49.8354 98.9164 48.7716C99.9014 47.7078 100.379 45.8257 100.379 43.098C100.379 40.8067 99.8716 39.1155 98.8567 38.079C97.8419 37.0151 96.4689 36.4969 94.7377 36.4969C93.2155 36.4423 91.7529 37.0424 90.7381 38.1062C89.7232 39.17 89.2158 40.9431 89.2158 43.4253V43.4253ZM117.094 43.398C117.094 39.4155 118.318 36.3059 120.735 34.0965C123.153 31.887 126.556 30.7687 130.884 30.7687C135.331 30.7687 138.764 31.8598 141.151 34.0419C143.539 36.2241 144.763 39.2791 144.763 43.2071C144.763 46.0712 144.226 48.3897 143.181 50.2173C142.166 52.0176 140.584 53.4905 138.644 54.4725C136.644 55.4818 134.167 56 131.212 56C128.197 56 125.72 55.5636 123.75 54.6907C121.72 53.7633 120.049 52.3176 118.944 50.5446C117.721 48.6352 117.094 46.2621 117.094 43.398V43.398ZM125.332 43.4253C125.332 45.8802 125.839 47.6532 126.824 48.7443C127.809 49.8081 129.182 50.3537 130.914 50.3537C132.675 50.3537 134.048 49.8354 135.033 48.7716C136.018 47.7078 136.495 45.8257 136.495 43.098C136.495 40.8067 135.988 39.1155 134.973 38.079C133.958 37.0151 132.585 36.4969 130.854 36.4969C129.332 36.4423 127.839 37.0424 126.854 38.1062C125.839 39.17 125.332 40.9431 125.332 43.4253V43.4253Z" fill="#1A2715"/>
<path d="M143.897 31.2051H152.135V49.5899H165V55.5909H143.868V31.2051H143.897Z" fill="#1A2715"/>
<path d="M134.817 29.7978C143.111 24.0859 145.669 14.4035 140.53 8.17137C135.391 1.93926 124.501 1.5175 116.207 7.22934C107.913 12.9412 105.356 22.6237 110.495 28.8558C115.634 35.0879 126.523 35.5096 134.817 29.7978Z" fill="#1A2715"/>
<path d="M117.124 16.7209L120.109 14.8115L123.78 19.585C124.407 20.3487 124.884 21.167 125.242 22.0672C125.451 22.7491 125.392 23.4856 125.093 24.1402C124.705 24.9586 124.078 25.6405 123.243 26.1315C122.258 26.7588 121.422 27.1135 120.706 27.2226C120.019 27.3317 119.303 27.2226 118.646 26.9498C117.93 26.6225 117.303 26.1587 116.825 25.5587L119.392 23.3765C119.601 23.6765 119.87 23.9493 120.168 24.1675C120.377 24.3039 120.616 24.3857 120.885 24.3857C121.094 24.3857 121.302 24.3039 121.452 24.1948C121.75 24.0311 121.959 23.7038 121.929 23.3765C121.84 22.9128 121.631 22.4491 121.302 22.0945L117.124 16.7209V16.7209ZM126.078 19.7486L128.794 17.7847C129.093 18.112 129.481 18.3575 129.899 18.4939C130.496 18.6575 131.122 18.5484 131.63 18.1938C131.988 17.9756 132.287 17.6756 132.406 17.2937C132.585 16.8027 132.287 16.2571 131.749 16.0935C131.66 16.0662 131.57 16.0389 131.481 16.0389C131.122 16.0116 130.496 16.148 129.57 16.5026C128.048 17.0755 126.854 17.2937 125.959 17.2118C125.093 17.13 124.287 16.7209 123.81 16.0389C123.452 15.5752 123.272 15.0297 123.243 14.4841C123.243 13.8568 123.422 13.2294 123.81 12.7111C124.377 11.9746 125.063 11.3473 125.899 10.8563C127.153 10.0652 128.257 9.68335 129.212 9.68335C130.167 9.68335 131.063 10.0925 131.899 10.9381L129.212 12.8748C128.675 12.2474 127.66 12.111 126.974 12.602L126.884 12.6838C126.586 12.8475 126.377 13.093 126.257 13.393C126.168 13.6113 126.227 13.8568 126.377 14.0477C126.496 14.1841 126.675 14.2932 126.884 14.2932C127.123 14.3205 127.541 14.2114 128.138 13.9659C129.63 13.393 130.764 13.0657 131.54 12.9566C132.197 12.8475 132.884 12.9021 133.51 13.1475C134.077 13.3658 134.555 13.7476 134.883 14.2114C135.301 14.7569 135.54 15.4116 135.57 16.0935C135.6 16.8027 135.391 17.4846 134.973 18.0847C134.436 18.8212 133.749 19.4486 132.943 19.9396C131.302 20.9761 129.958 21.4125 128.884 21.2489C127.72 21.0852 126.765 20.5397 126.078 19.7486V19.7486Z" fill="#3E5141"/>
</g>
<defs>
<clipPath id="clip0_7_55">
<rect width="165" height="56" fill="white"/>
</clipPath>
</defs>
</svg>
